<svg fill="currentColor" viewBox="0 0 20 20" style="vertical-align: middle; width: 12px; height: 12px;"><path d="M18.37,1.62 C17.87,1.12 17.12,1.12 16.62,1.62 L10,8.25 L3.37,1.62 C2.87,1.12 2.12,1.12 1.62,1.62 C1.12,2.12 1.12,2.87 1.62,3.37 L8.25,10 L1.62,16.62 C1.12,17.12 1.12,17.87 1.62,18.37 C1.87,18.62 2.12,18.75 2.5,18.75 C2.87,18.75 3.12,18.62 3.37,18.37 L10,11.75 L16.62,18.37 C16.87,18.62 17.25,18.75 17.5,18.75 C17.75,18.75 18.12,18.62 18.37,18.37 C18.87,17.87 18.87,17.12 18.37,16.62 L11.75,10 L18.37,3.37 C18.87,2.87 18.87,2.12 18.37,1.62 Z"></path></svg>