<svg fill="currentcolor" viewBox="0 0 20 20" aria-hidden="true" style="vertical-align: middle; width: 38px; height: 38px;"><g><path fill="#1877F2" d="M20,10c0-5.523-4.477-10-10-10S0,4.477,0,10c0,4.991,3.657,9.128,8.438,9.878v-6.988H5.898V10h2.539V7.797 c0-2.506,1.493-3.891,3.777-3.891c1.094,0,2.238,0.195,2.238,0.195v2.461h-1.261c-1.242,0-1.63,0.771-1.63,1.562V10h2.773 l-0.443,2.891h-2.33v6.988C16.343,19.128,20,14.991,20,10z"></path><path fill="#FFFFFF" d="M13.893,12.891L14.336,10h-2.773V8.124c0-0.791,0.387-1.562,1.63-1.562h1.261V4.102 c0,0-1.144-0.195-2.238-0.195c-2.284,0-3.777,1.384-3.777,3.891V10H5.898v2.891h2.539v6.988C8.947,19.958,9.468,20,10,20 s1.053-0.042,1.562-0.122v-6.988H13.893z"></path></g></svg>