<svg fill="#241F21" viewBox="0 0 20 20" style="vertical-align: middle; width: 16px; height: 16px;"><path d="M14.82,19.42 L10,16.89 L5.17,19.42 C4.26,19.91 3.18,19.13 3.36,18.11 L4.28,12.73 L0.37,8.93 C-0.36,8.20 0.04,6.94 1.07,6.79 L6.46,6.01 L8.88,1.12 C9.3,0.27 10.70,0.27 11.12,1.12 L13.53,6.01 L18.93,6.79 C19.95,6.94 20.36,8.20 19.62,8.93 L15.71,12.73 L16.64,18.11 C16.81,19.13 15.73,19.90 14.82,19.42 Z M10.58,14.37 L13.74,16.03 L13.14,12.51 C13.07,12.10 13.20,11.69 13.50,11.40 L16.06,8.90 L12.52,8.39 C12.11,8.33 11.76,8.07 11.58,7.71 L10,4.50 L8.41,7.71 C8.23,8.07 7.88,8.33 7.47,8.39 L3.93,8.90 L6.49,11.40 C6.79,11.69 6.92,12.10 6.85,12.51 L6.25,16.03 L9.41,14.37 C9.78,14.18 10.21,14.18 10.58,14.37 Z"></path></svg>