<svg fill="currentcolor" viewBox="0 0 20 20" style="vertical-align: middle; width: 32px; height: 32px;"><g><path d="M20 10C20 15.523 15.523 20 10 20C4.477 20 0 15.523 0 10C0 4.477 4.477 0 10 0C15.523 0 20 4.477 20 10Z" fill="#D93175"></path><path fill-rule="evenodd" clip-rule="evenodd" d="M15.9613 12.4753C15.9884 12.0174 16 11.1926 16 9.99806C16 8.80736 15.9884 7.98257 15.9613 7.52469C15.909 6.4395 15.5837 5.60019 14.9894 5.00678C14.3959 4.41336 13.5595 4.091 12.4753 4.03872C12.0174 4.01162 11.1926 4 9.99806 4C8.80736 4 7.98257 4.01162 7.52469 4.03872C6.4395 4.091 5.60019 4.41336 5.00678 5.00678C4.41336 5.60019 4.091 6.44046 4.03872 7.52469C4.01162 7.98257 4 8.80736 4 9.99806C4 11.1926 4.01162 12.0174 4.03872 12.4753C4.091 13.5605 4.41336 14.3959 5.00678 14.9894C5.60019 15.5837 6.44046 15.909 7.52469 15.9613C7.98257 15.9884 8.80736 16 9.99806 16C11.1926 16 12.0174 15.9884 12.4753 15.9613C13.5605 15.909 14.3959 15.5837 14.9894 14.9894C15.5837 14.3959 15.909 13.5595 15.9613 12.4753ZM9.99806 5.07841C9.96418 5.07841 9.76379 5.07841 9.40077 5.07454C9.12586 5.07066 8.85091 5.07066 8.57599 5.07454C8.32521 5.08041 8.07448 5.08816 7.82381 5.09777C7.55387 5.10622 7.28479 5.13274 7.01839 5.17715C6.79864 5.21491 6.61375 5.26428 6.46273 5.32043C5.94225 5.52969 5.52969 5.94225 5.32043 6.46273C5.26331 6.61375 5.21394 6.79864 5.17715 7.01839C5.13553 7.24105 5.11229 7.51016 5.09777 7.82381C5.08816 8.07448 5.08041 8.32521 5.07454 8.57599C5.07067 8.76573 5.07067 9.04066 5.07454 9.40077C5.07841 9.76379 5.07841 9.96418 5.07841 9.99806C5.07841 10.0368 5.07841 10.2362 5.07454 10.5954C5.07067 10.9584 5.07067 11.2343 5.07454 11.4201C5.07841 11.6089 5.08616 11.8587 5.09777 12.1762C5.11229 12.4898 5.13553 12.759 5.17715 12.9816C5.21491 13.2014 5.26428 13.3863 5.32043 13.5373C5.52969 14.0577 5.94225 14.4703 6.46273 14.6796C6.61375 14.7367 6.79864 14.7861 7.01839 14.8228C7.24105 14.8616 7.51016 14.8877 7.82381 14.9022C8.13746 14.9138 8.39109 14.9216 8.57599 14.9255C8.76573 14.9293 9.04066 14.9293 9.40077 14.9255C9.76379 14.9216 9.96418 14.9216 9.99806 14.9216C10.0368 14.9216 10.2362 14.9216 10.5954 14.9255C10.9584 14.9293 11.2343 14.9293 11.4201 14.9255C11.6089 14.9216 11.8587 14.9138 12.1762 14.9022C12.4898 14.8877 12.759 14.8606 12.9816 14.8228C13.2014 14.7851 13.3863 14.7357 13.5373 14.6796C14.0577 14.4703 14.4703 14.0577 14.6796 13.5373C14.7367 13.3863 14.7861 13.2014 14.8228 12.9816C14.8616 12.759 14.8877 12.4898 14.9022 12.1762C14.9138 11.8587 14.9216 11.6089 14.9255 11.4201C14.9293 11.2343 14.9293 10.9584 14.9255 10.5954C14.9216 10.2373 14.9216 10.0359 14.9216 9.99809V9.99806V9.99804C14.9216 9.96408 14.9216 9.76371 14.9255 9.40077C14.9294 9.12586 14.9294 8.85091 14.9255 8.57599C14.9196 8.32521 14.9118 8.07448 14.9022 7.82381C14.8916 7.55402 14.8651 7.28508 14.8228 7.01839C14.7924 6.82914 14.7444 6.64312 14.6796 6.46273C14.4703 5.94225 14.0577 5.52969 13.5373 5.32043C13.3569 5.25557 13.1709 5.20761 12.9816 5.17715C12.7152 5.13307 12.4461 5.10655 12.1762 5.09777C11.8587 5.08616 11.6089 5.07841 11.4201 5.07454C11.1452 5.07065 10.8703 5.07065 10.5954 5.07454C10.2372 5.07841 10.0358 5.07841 9.99806 5.07841ZM13.7115 7.30591C13.8479 7.17126 13.9228 6.98639 13.9187 6.79477H13.9197C13.9197 6.59826 13.8519 6.42885 13.7115 6.28848C13.5779 6.15056 13.3934 6.07386 13.2014 6.07648C13.0106 6.07458 12.8275 6.15125 12.6951 6.28848C12.5547 6.42885 12.4821 6.59826 12.4821 6.79477C12.4795 6.98677 12.5562 7.17134 12.6941 7.30494C12.8266 7.44277 13.0102 7.51982 13.2014 7.51791C13.3934 7.52053 13.5779 7.44383 13.7115 7.30591ZM13.0765 9.99806C13.0765 10.8529 12.7773 11.5789 12.1801 12.1801C11.607 12.7663 10.8177 13.0906 9.99806 13.0765C9.17955 13.0904 8.39153 12.7661 7.81994 12.1801C7.23369 11.607 6.90944 10.8177 6.92352 9.99806C6.92352 9.14714 7.22265 8.41723 7.81994 7.81994C8.39153 7.2339 9.17955 6.90959 9.99806 6.92352C10.8529 6.92352 11.5789 7.22265 12.1801 7.81994C12.7661 8.39153 13.0904 9.17955 13.0765 9.99806ZM11.9981 9.99806C12.0078 9.46686 11.7956 8.95565 11.4124 8.58761C11.043 8.20458 10.531 7.99241 9.99903 8.00194C9.44627 8.00194 8.97677 8.19458 8.58761 8.58761C8.20444 8.95565 7.99216 9.46686 8.00194 9.99806C8.00194 10.5499 8.19458 11.0232 8.58761 11.4124C8.95565 11.7956 9.46686 12.0078 9.99806 11.9981C10.5304 12.0077 11.0427 11.7956 11.4124 11.4124C11.8054 11.0232 11.9981 10.5508 11.9981 9.99903V9.99806Z" fill="white"></path></g></svg>