<svg fill="currentcolor" viewBox="0 0 20 20" alt="" aria-hidden="true" style="vertical-align: middle; width: 28px; height: 28px;"><path d="M19.4925 1.46779C19.3349 1.31268 19.1474 1.19131 18.9414 1.11108C18.7353 1.03084 18.5151 0.99343 18.2942 1.00112C15.0933 1.09612 11.8717 1.72446 10.2475 2.92446C10.1758 2.97737 10.0891 3.00593 10 3.00593C9.91091 3.00593 9.82417 2.97737 9.7525 2.92446C8.12833 1.72446 4.90667 1.09612 1.70583 1.00112C1.4848 0.992888 1.26443 1.03005 1.05832 1.11031C0.852216 1.19058 0.66475 1.31224 0.5075 1.46779C0.347352 1.62418 0.219985 1.81092 0.132847 2.01711C0.0457084 2.22329 0.000546053 2.44478 0 2.66862L0 14.752C0.00011365 15.136 0.132874 15.5083 0.375828 15.8057C0.618782 16.1032 0.957019 16.3076 1.33333 16.3845C1.42731 16.4036 1.51179 16.4547 1.57251 16.5289C1.63324 16.6031 1.66649 16.696 1.66667 16.792V18.7086C1.66662 18.8339 1.69483 18.9577 1.74922 19.0706C1.8036 19.1835 1.88276 19.2827 1.98079 19.3608C2.07881 19.4389 2.19319 19.4938 2.31541 19.5216C2.43762 19.5494 2.56452 19.5492 2.68667 19.5211C7.40333 18.4728 8.86167 19.322 10 19.322C11.1383 19.322 12.5042 18.462 17.3133 19.5211C17.4355 19.5492 17.5624 19.5494 17.6846 19.5216C17.8068 19.4938 17.9212 19.4389 18.0192 19.3608C18.1172 19.2827 18.1964 19.1835 18.2508 19.0706C18.3052 18.9577 18.3334 18.8339 18.3333 18.7086V16.792C18.3335 16.696 18.3668 16.6031 18.4275 16.5289C18.4882 16.4547 18.5727 16.4036 18.6667 16.3845C19.043 16.3076 19.3812 16.1032 19.6242 15.8057C19.8671 15.5083 19.9999 15.136 20 14.752V2.66862C19.9995 2.44478 19.9543 2.22329 19.8672 2.01711C19.78 1.81092 19.6526 1.62418 19.4925 1.46779ZM9.16667 4.73862V15.6428C9.16649 15.7119 9.14914 15.7799 9.11617 15.8406C9.08319 15.9013 9.03564 15.9529 8.97778 15.9906C8.91992 16.0284 8.85358 16.0512 8.78472 16.057C8.71587 16.0627 8.64666 16.0513 8.58333 16.0236C6.49546 15.2464 4.29298 14.8215 2.06583 14.7661C1.95925 14.7616 1.85844 14.7165 1.78417 14.6399C1.70991 14.5633 1.66785 14.4611 1.66667 14.3545L1.65667 3.10446C1.65661 3.04809 1.66799 2.99229 1.69011 2.94045C1.71224 2.88861 1.74466 2.84179 1.7854 2.80284C1.82615 2.76389 1.87437 2.73361 1.92716 2.71383C1.97994 2.69405 2.03619 2.6852 2.0925 2.68779C6.76083 2.89529 9.16667 4.20196 9.16667 4.73862ZM3.33333 16.7495C3.33354 16.7204 3.33981 16.6916 3.35175 16.6651C3.3637 16.6385 3.38105 16.6148 3.40269 16.5953C3.42434 16.5759 3.44981 16.5612 3.47747 16.5521C3.50513 16.5431 3.53438 16.5399 3.56333 16.5428C4.41558 16.6275 5.26131 16.7683 6.095 16.9645C6.14377 16.9759 6.18679 17.0045 6.21617 17.0451C6.24556 17.0857 6.25933 17.1355 6.25498 17.1854C6.25063 17.2353 6.22844 17.282 6.19247 17.3168C6.15651 17.3517 6.10918 17.3725 6.05917 17.3753C5.11333 17.4328 4.24083 17.5486 3.575 17.657C3.54522 17.6616 3.51477 17.6598 3.48575 17.6517C3.45673 17.6435 3.42983 17.6291 3.40687 17.6096C3.38392 17.59 3.36546 17.5657 3.35277 17.5384C3.34008 17.511 3.33345 17.4813 3.33333 17.4511V16.7495ZM16.6667 17.4511C16.6668 17.4814 16.6604 17.5113 16.6478 17.5388C16.6352 17.5662 16.6167 17.5906 16.5937 17.6103C16.5707 17.6299 16.5437 17.6442 16.5145 17.6523C16.4854 17.6603 16.4548 17.6619 16.425 17.657C15.7583 17.5486 14.8867 17.4328 13.9408 17.3753C13.8908 17.3725 13.8435 17.3517 13.8075 17.3168C13.7716 17.282 13.7494 17.2353 13.745 17.1854C13.7407 17.1355 13.7544 17.0857 13.7838 17.0451C13.8132 17.0045 13.8562 16.9759 13.905 16.9645C14.7387 16.7683 15.5844 16.6275 16.4367 16.5428C16.4656 16.5399 16.4949 16.5431 16.5225 16.5521C16.5502 16.5612 16.5757 16.5759 16.5973 16.5953C16.619 16.6148 16.6363 16.6385 16.6482 16.6651C16.6602 16.6916 16.6665 16.7204 16.6667 16.7495V17.4511ZM18.3225 14.3545C18.3226 14.4617 18.2814 14.5649 18.2073 14.6425C18.1333 14.7201 18.0322 14.7662 17.925 14.7711C15.7012 14.824 13.5018 15.2464 11.4167 16.0211C11.3533 16.0488 11.284 16.0602 11.2151 16.0544C11.1461 16.0486 11.0798 16.0258 11.0219 15.9879C10.964 15.95 10.9165 15.8984 10.8835 15.8375C10.8506 15.7767 10.8334 15.7086 10.8333 15.6395V4.73862C10.8333 4.20196 13.2383 2.89529 17.8975 2.68529C17.954 2.68268 18.0105 2.69162 18.0634 2.71155C18.1164 2.73147 18.1647 2.76198 18.2055 2.8012C18.2463 2.84042 18.2787 2.88754 18.3006 2.93967C18.3226 2.99181 18.3337 3.04788 18.3333 3.10446L18.3225 14.3545Z"></path></svg>