 <svg fill="#ffffff" viewBox="0 0 20 20" style="vertical-align: middle; width: 16px; height: 16px;"><path d="M19,0 L0.86,0 C0.37,0 0,0.37 0,0.87 L0,19.25 C0,19.62 0.37,20 0.86,20 L19.13,20 C19.62,20 20,19.62 20,19.12 L20,0.87 C19.87,0.37 19.5,0 19,0 Z M5.83850932,17 L2.98,17 L2.98,7.5 L5.96,7.5 L5.96,17 L5.83,17 Z M4.47204969,6.25 C3.47,6.25 2.73,5.37 2.73,4.5 C2.73,3.5 3.47,2.75 4.47,2.75 C5.46,2.75 6.21,3.5 6.21,4.5 C6.08,5.37 5.34,6.25 4.47,6.25 Z M16.8944099,17 L13.91,17 L13.91,12.37 C13.91,11.25 13.91,9.87 12.42,9.87 C10.93,9.87 10.68,11.12 10.68,12.37 L10.68,17.12 L7.7,17.12 L7.7,7.5 L10.55,7.5 L10.55,8.75 L10.55,8.75 C10.93,8 11.92,7.25 13.29,7.25 C16.27,7.25 16.77,9.25 16.77,11.75 L16.77,17 L16.89,17 Z"></path></svg>