<svg fill="currentcolor" viewBox="0 0 20 20" aria-hidden="true" style="vertical-align: middle; width: 38px; height: 38px;"><g><path d="M10 20C15.523 20 20 15.523 20 10C20 4.477 15.523 0 10 0C4.477 0 0 4.477 0 10C0 15.523 4.477 20 10 20Z" fill="#0A66C2"></path><path fill-rule="evenodd" clip-rule="evenodd" d="M6.97347 5.39759C6.97878 5.79554 6.84294 6.1277 6.56703 6.39512C6.29112 6.66254 5.92819 6.79519 5.47825 6.79519H5.46233C5.02299 6.79519 4.66961 6.66254 4.40113 6.39512C4.13371 6.1277 4 5.79554 4 5.39759C4 4.99434 4.13796 4.66112 4.41387 4.39689C4.68978 4.13159 5.05058 4 5.49416 4C5.93987 4 6.29537 4.13265 6.56279 4.39689C6.83127 4.66219 6.96604 4.99434 6.97241 5.39759H6.97347ZM6.80368 7.89883V16H4.15387V7.89883H6.80368ZM10.9126 9.04676C11.0138 8.88166 11.1171 8.7416 11.2236 8.61514C11.336 8.48461 11.4889 8.34241 11.6778 8.19066C11.8688 8.03785 12.1022 7.919 12.3781 7.83516C12.654 7.75027 12.9597 7.70782 13.2971 7.70782C14.2129 7.70782 14.9494 8.01769 15.5065 8.6353C16.0637 9.25398 16.3428 10.1602 16.3428 11.3541V15.9968H13.6983V11.664C13.6983 11.0909 13.59 10.6452 13.3735 10.3194C13.156 9.99576 12.8175 9.83339 12.3569 9.83339C12.0195 9.83339 11.7372 9.92572 11.508 10.1146C11.2809 10.3024 11.1111 10.5348 10.9986 10.8129C10.9402 10.9763 10.9105 11.197 10.9105 11.4751V15.9958H8.26813C8.27874 13.8203 8.28299 12.0587 8.28299 10.7068C8.28299 9.35585 8.28299 8.54935 8.27768 8.28723L8.27025 7.89459H10.9126V9.04676Z" fill="white"></path></g></svg>