<svg fill="currentcolor" viewBox="0 0 20 20" alt="" aria-hidden="true" style="vertical-align: middle; width: 28px; height: 28px;"><path d="M7.5,5 C8.25,5 8.75,5.5 8.75,6.25 C8.75,7 8.25,7.5 7.5,7.5 C6.75,7.5 6.25,7 6.25,6.25 C6.25,5.5 6.75,5 7.5,5 Z M3.75,15 L6.25,10 L8.75,12.5 L12.5,7.5 L16.25,15 L3.75,15 Z M18.75,20 L1.25,20 C0.5,20 0,19.5 0,18.75 L0,1.25 C0,0.5 0.5,0 1.25,0 L18.75,0 C19.5,0 20,0.5 20,1.25 L20,18.75 C20,19.5 19.5,20 18.75,20 Z M2.5,17.5 L17.5,17.5 L17.5,2.5 L2.5,2.5 L2.5,17.5 Z"></path></svg>
