<svg fill="#5D6366" viewBox="0 0 20 20" aria-hidden="true" style="vertical-align: middle; width: 16px; height: 16px;"><path d="M7.5,8.75 C6.8,8.75 6.25,8.19 6.25,7.5 C6.25,6.8 6.8,6.25 7.5,6.25 C8.19,6.25 8.75,6.8 8.75,7.5 C8.75,8.19 8.19,8.75 7.5,8.75 Z M12.5,8.75 C11.8,8.75 11.25,8.19 11.25,7.5 C11.25,6.8 11.8,6.25 12.5,6.25 C13.19,6.25 13.75,6.8 13.75,7.5 C13.75,8.19 13.19,8.75 12.5,8.75 Z M10,15 C7.87,15 6.25,13.37 6.25,11.25 L13.75,11.25 C13.75,13.37 12.12,15 10,15 Z M10,0 C4.5,0 0,4.5 0,10 C0,15.5 4.5,20 10,20 C15.5,20 20,15.5 20,10 C20,4.5 15.5,0 10,0 Z M10,17.5 C5.87,17.5 2.5,14.12 2.5,10 C2.5,5.87 5.87,2.5 10,2.5 C14.12,2.5 17.5,5.87 17.5,10 C17.5,14.12 14.12,17.5 10,17.5 Z"></path></svg>