<svg fill="currentcolor" viewBox="0 0 20 20" aria-hidden="true" style="vertical-align: middle; width: 38px; height: 38px;"><g><path d="M20 10C20 15.523 15.523 20 10 20C4.477 20 0 15.523 0 10C0 4.477 4.477 0 10 0C15.523 0 20 4.477 20 10Z" fill="#FF0000"></path><path fill-rule="evenodd" clip-rule="evenodd" d="M15.7942 6.9177C15.9999 7.87415 16 8.91902 16 9.90021C16 10.8848 16 11.93 15.787 12.8868C15.6461 13.5617 15.1235 14.0556 14.4928 14.1327C13.0062 14.3056 11.499 14.3056 10 14.3056C8.50103 14.3056 6.99383 14.3056 5.5072 14.1317C4.87654 14.0556 4.35391 13.5617 4.20576 12.8868C4 11.93 4 10.8848 4 9.90123C4 8.91975 4 7.87449 4.21296 6.9177C4.36214 6.24383 4.87654 5.74897 5.5072 5.67284C6.99383 5.5 8.50103 5.5 10 5.5C11.499 5.5 13.0062 5.5 14.4928 5.67284C15.1235 5.74897 15.6461 6.24383 15.7942 6.9177ZM12.3714 10.2747C12.5 10.1975 12.572 10.0535 12.572 9.90123C12.5747 9.75114 12.4986 9.61059 12.3714 9.53086L8.94342 7.32819C8.81106 7.24236 8.64176 7.23799 8.50514 7.31687C8.36897 7.3979 8.28508 7.54422 8.28395 7.70267V12.1029C8.28528 12.2613 8.36912 12.4075 8.50514 12.4887C8.56979 12.5224 8.64112 12.5414 8.71399 12.5442C8.79607 12.5445 8.87622 12.5194 8.94342 12.4722L12.3714 10.2747Z" fill="white"></path></g></svg>
